<?xml version="1.0" standalone="no"?>
<!DOCTYPE svg PUBLIC "-//W3C//DTD SVG 20010904//EN"
 "http://www.w3.org/TR/2001/REC-SVG-20010904/DTD/svg10.dtd">
<svg version="1.0" xmlns="http://www.w3.org/2000/svg"
 width="331.000000pt" height="331.000000pt" viewBox="0 0 331.000000 331.000000"
 preserveAspectRatio="xMidYMid meet">
<metadata>
Created by potrace 1.11, written by Peter Selinger 2001-2013
</metadata>
<g transform="translate(0.000000,331.000000) scale(0.100000,-0.100000)"
fill="#000000" stroke="none">
<path d="M500 2960 c-20 -20 -20 -33 -20 -1148 0 -1089 1 -1130 19 -1146 15
-14 38 -16 147 -14 l129 3 3 1023 2 1022 160 0 160 0 74 -112 c40 -62 126
-194 189 -293 197 -306 282 -435 287 -435 5 0 90 129 287 435 63 99 149 231
189 293 l74 112 160 0 160 0 -2 -882 -3 -883 -147 -3 -148 -3 0 631 c0 384 -4
630 -9 630 -5 0 -128 -177 -272 -392 -144 -216 -269 -401 -279 -411 -17 -18
-28 -3 -290 392 -150 226 -276 408 -281 405 -11 -6 -12 -2021 -1 -2028 6 -4
163 132 332 288 25 23 87 78 137 124 l93 82 568 0 c538 0 570 1 585 18 16 17
17 111 17 1145 0 1114 0 1127 -20 1147 -20 20 -33 20 -1150 20 -1117 0 -1130
0 -1150 -20z"/>
</g>
</svg>
